<?xml version="1.0" encoding="UTF-8"?><svg xmlns="http://www.w3.org/2000/svg" xmlns:xlink="http://www.w3.org/1999/xlink" fill-opacity="1" color-rendering="auto" color-interpolation="auto" text-rendering="auto" stroke="black" stroke-linecap="square" width="865" stroke-miterlimit="10" shape-rendering="auto" stroke-opacity="1" fill="black" stroke-dasharray="none" font-weight="normal" stroke-width="1" height="531" font-family="'Dialog'" font-style="normal" stroke-linejoin="miter" font-size="12px" stroke-dashoffset="0" image-rendering="auto">
  <!--Generated by ySVG 2.5-->
  <defs id="genericDefs"/>
  <g>
    <defs id="defs1">
      <clipPath clipPathUnits="userSpaceOnUse" id="clipPath1">
        <path d="M0 0 L865 0 L865 531 L0 531 L0 0 Z"/>
      </clipPath>
      <clipPath clipPathUnits="userSpaceOnUse" id="clipPath2">
        <path d="M-15 -15 L850 -15 L850 516 L-15 516 L-15 -15 Z"/>
      </clipPath>
    </defs>
    <g fill="white" text-rendering="geometricPrecision" shape-rendering="geometricPrecision" transform="translate(15,15)" stroke="white">
      <rect x="-15" width="865" height="531" y="-15" clip-path="url(#clipPath2)" stroke="none"/>
    </g>
    <g fill="rgb(104,95,115)" text-rendering="geometricPrecision" shape-rendering="geometricPrecision" transform="matrix(1,0,0,1,15,15)" stroke="rgb(104,95,115)">
      <circle r="20" clip-path="url(#clipPath2)" cx="181.7218" cy="20" stroke="none"/>
    </g>
    <g text-rendering="geometricPrecision" stroke-miterlimit="1.45" shape-rendering="geometricPrecision" transform="matrix(1,0,0,1,15,15)" stroke-linecap="butt">
      <circle fill="none" r="20" clip-path="url(#clipPath2)" cx="181.7218" cy="20"/>
      <text x="167.0646" xml:space="preserve" y="24.1543" clip-path="url(#clipPath2)" font-family="sans-serif" stroke="none">Start</text>
    </g>
    <g fill="rgb(245,245,245)" text-rendering="geometricPrecision" shape-rendering="geometricPrecision" transform="matrix(1,0,0,1,15,15)" stroke="rgb(245,245,245)">
      <rect x="0" y="45" clip-path="url(#clipPath2)" width="378.4437" rx="4" ry="4" height="419.9609" stroke="none"/>
    </g>
    <g fill="rgb(235,235,235)" text-rendering="geometricPrecision" shape-rendering="geometricPrecision" transform="matrix(1,0,0,1,15,15)" stroke="rgb(235,235,235)">
      <rect x="0" width="378.4437" height="21.4609" y="45" clip-path="url(#clipPath2)" stroke="none"/>
    </g>
    <g font-size="15px" stroke-linecap="butt" transform="matrix(1,0,0,1,15,15)" text-rendering="geometricPrecision" font-family="sans-serif" shape-rendering="geometricPrecision" stroke-miterlimit="1.45">
      <text x="2" xml:space="preserve" y="60.9233" clip-path="url(#clipPath2)" stroke="none">Detection Phase</text>
      <rect x="0" y="45" clip-path="url(#clipPath2)" fill="none" width="378.4437" stroke-dasharray="6,2" rx="4" ry="4" height="419.9609"/>
    </g>
    <g fill="rgb(104,95,115)" text-rendering="geometricPrecision" shape-rendering="geometricPrecision" transform="matrix(1,0,0,1,15,15)" stroke="rgb(104,95,115)">
      <path d="M120.2218 172.9609 L243.2218 172.9609 L243.2218 234.4609 L120.2218 234.4609 Z" stroke="none" clip-path="url(#clipPath2)"/>
    </g>
    <g text-rendering="geometricPrecision" stroke-miterlimit="1.45" shape-rendering="geometricPrecision" transform="matrix(1,0,0,1,15,15)" stroke-linecap="butt">
      <path fill="none" d="M120.2218 172.9609 L243.2218 172.9609 L243.2218 234.4609 L120.2218 234.4609 Z" clip-path="url(#clipPath2)"/>
      <text x="28.1886" xml:space="preserve" y="207.8652" clip-path="url(#clipPath2)" font-family="sans-serif" stroke="none">Coordinator sends random $\vec{\theta}_i^{(h)}$</text>
    </g>
    <g fill="rgb(104,95,115)" text-rendering="geometricPrecision" shape-rendering="geometricPrecision" transform="matrix(1,0,0,1,15,15)" stroke="rgb(104,95,115)">
      <path d="M120.2218 264.4609 L243.2218 264.4609 L243.2218 325.9609 L120.2218 325.9609 Z" stroke="none" clip-path="url(#clipPath2)"/>
    </g>
    <g text-rendering="geometricPrecision" stroke-miterlimit="1.45" shape-rendering="geometricPrecision" transform="matrix(1,0,0,1,15,15)" stroke-linecap="butt">
      <path fill="none" d="M120.2218 264.4609 L243.2218 264.4609 L243.2218 325.9609 L120.2218 325.9609 Z" clip-path="url(#clipPath2)"/>
      <text x="17.0001" xml:space="preserve" y="299.3652" clip-path="url(#clipPath2)" font-family="sans-serif" stroke="none">Agents send $\vec{\lambda}_i(\vec{\theta}_i^{(h)})$</text>
    </g>
    <g fill="rgb(104,95,115)" text-rendering="geometricPrecision" shape-rendering="geometricPrecision" transform="matrix(1,0,0,1,15,15)" stroke="rgb(104,95,115)">
      <path d="M120.2218 81.4609 L243.2218 81.4609 L243.2218 142.9609 L120.2218 142.9609 Z" stroke="none" clip-path="url(#clipPath2)"/>
    </g>
    <g text-rendering="geometricPrecision" stroke-miterlimit="1.45" shape-rendering="geometricPrecision" transform="matrix(1,0,0,1,15,15)" stroke-linecap="butt">
      <path fill="none" d="M120.2218 81.4609 L243.2218 81.4609 L243.2218 142.9609 L120.2218 142.9609 Z" clip-path="url(#clipPath2)"/>
      <text x="149.6798" xml:space="preserve" y="116.3652" clip-path="url(#clipPath2)" font-family="sans-serif" stroke="none">Set $h=0$</text>
    </g>
    <g fill="rgb(255,204,0)" text-rendering="geometricPrecision" shape-rendering="geometricPrecision" transform="matrix(1,0,0,1,15,15)" stroke="rgb(255,204,0)">
      <path d="M134.7218 402.9608 L181.7218 355.9606 L228.7218 402.9608 L181.7218 449.9608 Z" fill-rule="evenodd" clip-path="url(#clipPath2)" stroke="none"/>
    </g>
    <g text-rendering="geometricPrecision" stroke-miterlimit="1.45" shape-rendering="geometricPrecision" transform="matrix(1,0,0,1,15,15)" stroke-linecap="butt">
      <path fill="none" d="M134.7218 402.9608 L181.7218 355.9606 L228.7218 402.9608 L181.7218 449.9608 Z" fill-rule="evenodd" clip-path="url(#clipPath2)"/>
      <path fill="none" d="M181.7218 234.4609 L181.7218 256.4316" clip-path="url(#clipPath2)"/>
      <path d="M181.7218 264.4316 L186.7218 252.4316 L181.7218 255.4316 L176.7218 252.4316 Z" clip-path="url(#clipPath2)" stroke="none"/>
      <path fill="none" d="M181.7218 40 L181.7218 73.4204" clip-path="url(#clipPath2)"/>
      <path d="M181.7218 81.4204 L186.7218 69.4204 L181.7218 72.4204 L176.7218 69.4204 Z" clip-path="url(#clipPath2)" stroke="none"/>
      <path fill="none" d="M181.7218 142.9609 L181.7218 164.9316" clip-path="url(#clipPath2)"/>
      <path d="M181.7218 172.9316 L186.7218 160.9316 L181.7218 163.9316 L176.7218 160.9316 Z" clip-path="url(#clipPath2)" stroke="none"/>
      <path fill="none" d="M181.7218 325.9609 L181.7218 347.9316" clip-path="url(#clipPath2)"/>
      <path d="M181.7218 355.9316 L186.7218 343.9316 L181.7218 346.9316 L176.7218 343.9316 Z" clip-path="url(#clipPath2)" stroke="none"/>
      <path fill="none" d="M228.7218 402.9609 L363.4437 402.9609 L363.4437 203.7109 L251.2512 203.7109" clip-path="url(#clipPath2)"/>
      <path d="M243.2512 203.7109 L255.2512 208.7109 L252.2512 203.7109 L255.2512 198.7109 Z" clip-path="url(#clipPath2)" stroke="none"/>
    </g>
    <g fill="rgb(245,245,245)" text-rendering="geometricPrecision" shape-rendering="geometricPrecision" transform="matrix(1,0,0,1,15,15)" stroke="rgb(245,245,245)">
      <rect x="456" y="45" clip-path="url(#clipPath2)" width="378.4437" rx="4" ry="4" height="419.9609" stroke="none"/>
      <rect x="456" y="45" clip-path="url(#clipPath2)" fill="rgb(235,235,235)" width="378.4437" height="21.4609" stroke="none"/>
    </g>
    <g font-size="15px" stroke-linecap="butt" transform="matrix(1,0,0,1,15,15)" text-rendering="geometricPrecision" font-family="sans-serif" shape-rendering="geometricPrecision" stroke-miterlimit="1.45">
      <text x="458" xml:space="preserve" y="60.9233" clip-path="url(#clipPath2)" stroke="none">Negotiation Phase</text>
      <rect x="456" y="45" clip-path="url(#clipPath2)" fill="none" width="378.4437" stroke-dasharray="6,2" rx="4" ry="4" height="419.9609"/>
    </g>
    <g fill="rgb(104,95,115)" text-rendering="geometricPrecision" shape-rendering="geometricPrecision" transform="matrix(1,0,0,1,15,15)" stroke="rgb(104,95,115)">
      <path d="M576.2218 172.9609 L699.2218 172.9609 L699.2218 234.4609 L576.2218 234.4609 Z" stroke="none" clip-path="url(#clipPath2)"/>
    </g>
    <g text-rendering="geometricPrecision" stroke-miterlimit="1.45" shape-rendering="geometricPrecision" transform="matrix(1,0,0,1,15,15)" stroke-linecap="butt">
      <path fill="none" d="M576.2218 172.9609 L699.2218 172.9609 L699.2218 234.4609 L576.2218 234.4609 Z" clip-path="url(#clipPath2)"/>
      <text x="484.1886" xml:space="preserve" y="207.8652" clip-path="url(#clipPath2)" font-family="sans-serif" stroke="none">Coordinator sends random $\vec{\theta}_i^{(h)}$</text>
    </g>
    <g fill="rgb(104,95,115)" text-rendering="geometricPrecision" shape-rendering="geometricPrecision" transform="matrix(1,0,0,1,15,15)" stroke="rgb(104,95,115)">
      <path d="M576.2218 264.4609 L699.2218 264.4609 L699.2218 325.9609 L576.2218 325.9609 Z" stroke="none" clip-path="url(#clipPath2)"/>
    </g>
    <g text-rendering="geometricPrecision" stroke-miterlimit="1.45" shape-rendering="geometricPrecision" transform="matrix(1,0,0,1,15,15)" stroke-linecap="butt">
      <path fill="none" d="M576.2218 264.4609 L699.2218 264.4609 L699.2218 325.9609 L576.2218 325.9609 Z" clip-path="url(#clipPath2)"/>
      <text x="473.0002" xml:space="preserve" y="299.3652" clip-path="url(#clipPath2)" font-family="sans-serif" stroke="none">Agents send $\vec{\lambda}_i(\vec{\theta}_i^{(h)})$</text>
    </g>
    <g fill="rgb(104,95,115)" text-rendering="geometricPrecision" shape-rendering="geometricPrecision" transform="matrix(1,0,0,1,15,15)" stroke="rgb(104,95,115)">
      <path d="M576.2218 81.4609 L699.2218 81.4609 L699.2218 142.9609 L576.2218 142.9609 Z" stroke="none" clip-path="url(#clipPath2)"/>
    </g>
    <g text-rendering="geometricPrecision" stroke-miterlimit="1.45" shape-rendering="geometricPrecision" transform="matrix(1,0,0,1,15,15)" stroke-linecap="butt">
      <path fill="none" d="M576.2218 81.4609 L699.2218 81.4609 L699.2218 142.9609 L576.2218 142.9609 Z" clip-path="url(#clipPath2)"/>
      <text x="605.6798" xml:space="preserve" y="116.3652" clip-path="url(#clipPath2)" font-family="sans-serif" stroke="none">Set $h=0$</text>
    </g>
    <g fill="rgb(255,204,0)" text-rendering="geometricPrecision" shape-rendering="geometricPrecision" transform="matrix(1,0,0,1,15,15)" stroke="rgb(255,204,0)">
      <path d="M590.7217 402.9611 L637.7217 355.9611 L684.7216 402.9611 L637.7217 449.9611 Z" fill-rule="evenodd" clip-path="url(#clipPath2)" stroke="none"/>
    </g>
    <g text-rendering="geometricPrecision" stroke-miterlimit="1.45" shape-rendering="geometricPrecision" transform="matrix(1,0,0,1,15,15)" stroke-linecap="butt">
      <path fill="none" d="M590.7217 402.9611 L637.7217 355.9611 L684.7216 402.9611 L637.7217 449.9611 Z" fill-rule="evenodd" clip-path="url(#clipPath2)"/>
      <path fill="none" d="M637.7218 234.4609 L637.7218 256.4316" clip-path="url(#clipPath2)"/>
      <path d="M637.7218 264.4316 L642.7218 252.4316 L637.7218 255.4316 L632.7218 252.4316 Z" clip-path="url(#clipPath2)" stroke="none"/>
      <path fill="none" d="M181.7218 449.9609 L181.7218 500.1914 L576.2218 500.1914 L576.2218 150.9773" clip-path="url(#clipPath2)"/>
      <path d="M576.2218 142.9773 L571.2218 154.9773 L576.2218 151.9773 L581.2218 154.9773 Z" clip-path="url(#clipPath2)" stroke="none"/>
      <path fill="none" d="M637.7218 142.9609 L637.7218 164.9316" clip-path="url(#clipPath2)"/>
      <path d="M637.7218 172.9316 L642.7218 160.9316 L637.7218 163.9316 L632.7218 160.9316 Z" clip-path="url(#clipPath2)" stroke="none"/>
      <path fill="none" d="M637.7218 325.9609 L637.7218 347.9609" clip-path="url(#clipPath2)"/>
      <path d="M637.7218 355.9609 L642.7218 343.9609 L637.7218 346.9609 L632.7218 343.9609 Z" clip-path="url(#clipPath2)" stroke="none"/>
      <path fill="none" d="M684.7218 402.9609 L819.4437 402.9609 L819.4437 203.7109 L707.2218 203.7109" clip-path="url(#clipPath2)"/>
      <path d="M699.2218 203.7109 L711.2218 208.7109 L708.2218 203.7109 L711.2218 198.7109 Z" clip-path="url(#clipPath2)" stroke="none"/>
    </g>
  </g>
</svg>
